<svg version="1.0" xmlns="http://www.w3.org/2000/svg" width="78.667" height="66.667" viewBox="0 0 59 50" fill="#fff"><g fill="#000"><path d="M0 3.1v3l2.6-2C5.1 2.1 6.5 2 25.5 2c18.3 0 20.3.2 21.8 1.8C48.7 5.3 49 7.9 49 18.3c0 16.3.7 15.7-18.7 15.7-14.1 0-14.3 0-19.1 3-2.7 1.7-5.2 3-5.5 3-.4 0-.4-1.3-.1-3 .6-2.5.3-3.1-1.9-3.9-1.4-.5-2.7-1.6-3-2.3s-.6 3.3-.6 8.9L0 50h59V0H0zm56.8 12.1c.8.8 1.2 5 1.2 12.4 0 12.2-.4 14.4-2.7 14.4-1.1 0-1.3.7-.9 2.6l.7 2.6-4.5-2.6c-4.2-2.4-5.2-2.6-17.5-2.6-10.4 0-13.3-.3-14.5-1.6-.9-.8-1.6-2-1.6-2.5s7-.9 16.4-.9c13.6 0 16.7-.3 18-1.6 1.2-1.2 1.6-3.8 1.6-11.5 0-10.1.7-11.8 3.8-8.7"/><path d="M9.7 14.6c-1.3 1.4-.7 4.3 1.2 5.3 2.4 1.3 5.5-.8 5-3.5-.4-1.9-4.8-3.2-6.2-1.8m11.9.9c-.8 2.2-.8 2.1 1 3.9 2.1 2.2 5.6.3 5.2-2.7-.4-2.8-5.2-3.7-6.2-1.2m12.7.1c-.7 1.8.6 4.5 2.4 5.1.6.2 1.8-.3 2.7-1.2 1.2-1.2 1.3-2.1.6-3.6-1.3-2.3-4.8-2.5-5.7-.3"/></g></svg>